<?xml version="1.0" encoding="utf-8"?>
<!-- Generator: Adobe Illustrator 22.0.1, SVG Export Plug-In . SVG Version: 6.00 Build 0)  -->
<svg version="1.1" id="Слой_1" xmlns="http://www.w3.org/2000/svg" xmlns:xlink="http://www.w3.org/1999/xlink" x="0px" y="0px"
	 viewBox="0 0 696.4 134.1" style="enable-background:new 0 0 696.4 134.1;" xml:space="preserve">
<style type="text/css">
	.st0{fill:#383838;}
	.st1{fill:#FECC1D;}
</style>
<rect x="38" y="15" class="st0" width="610" height="94.1"/>
<g>
	<polygon class="st1" points="215.8,51.2 207.4,75.2 224.1,75.2 216,51.2 	"/>
	<path class="st1" d="M322.3,45.4c-4.4,0-7.9,1.6-10.5,4.9c-2.6,3.3-3.9,7.5-3.9,12.6v10c0,5.2,1.3,9.4,3.9,12.7
		c2.6,3.3,6.1,4.9,10.5,4.9c4.7,0,8.4-1.6,11.1-4.9s4.1-7.5,4.1-12.7v-10c0-5.1-1.4-9.3-4.1-12.6C330.6,47.1,326.9,45.4,322.3,45.4z
		"/>
	<polygon class="st1" points="443.6,51.2 435.3,75.2 451.9,75.2 443.8,51.2 	"/>
	<path class="st1" d="M656.6,4.1H36.9L0,68l36.9,63.9h619.7L693.5,68L656.6,4.1z M64.9,98.4c0,5.9-4.8,10.7-10.7,10.7
		s-10.7-4.8-10.7-10.7c0-4.6,2.9-8.5,6.9-10V63.7c-4.1-1.5-6.9-5.4-6.9-10c0-5.9,4.8-10.7,10.7-10.7s10.7,4.8,10.7,10.7
		c0,4.6-2.9,8.5-6.9,10v24.7C62,89.9,64.9,93.8,64.9,98.4z M91.7,76c0,5.9-4.8,10.7-10.7,10.7c-5.9,0-10.7-4.8-10.7-10.7
		c0-4.6,2.9-8.5,6.9-10V41.3c-4.1-1.5-6.9-5.4-6.9-10c0-5.9,4.8-10.7,10.7-10.7c5.9,0,10.7,4.8,10.7,10.7c0,4.6-2.9,8.5-6.9,10V66
		C88.8,67.5,91.7,71.4,91.7,76z M118.6,92.5c0,5.9-4.8,10.7-10.7,10.7c-5.9,0-10.7-4.8-10.7-10.7c0-4.6,2.9-8.5,6.9-10V63.7
		c-4.1-1.5-6.9-5.4-6.9-10c0-5.9,4.8-10.7,10.7-10.7c5.9,0,10.7,4.8,10.7,10.7c0,4.6-2.9,8.5-6.9,10v18.7
		C115.7,84,118.6,87.9,118.6,92.5z M183.7,95.9h-7.6l-26.9-42.7l-0.2,0.1v42.6h-7.6V40h7.6l26.9,42.6l0.2-0.1V40h7.6V95.9z
		 M231.2,95.9l-4.9-14.4h-21l-5,14.4h-7.7L212.7,40h6.5l19.7,55.8L231.2,95.9L231.2,95.9z M289.3,95.9h-7.6l-26.9-42.7l-0.2,0.1
		v42.6H247V40h7.6l26.9,42.6l0.2-0.1V40h7.6L289.3,95.9L289.3,95.9z M345.1,72.9c0,6.8-2.1,12.5-6.3,17c-4.2,4.5-9.7,6.8-16.5,6.8
		c-6.5,0-11.8-2.3-15.9-6.8s-6.1-10.2-6.1-17V63c0-6.8,2-12.5,6.1-17s9.4-6.8,15.9-6.8c6.8,0,12.2,2.3,16.5,6.8
		c4.2,4.5,6.3,10.2,6.3,17V72.9z M384.8,85.7c2.5,3.4,5.9,5.1,10.1,5.1s7.4-1.1,9.7-3.4c2.3-2.3,3.5-5.4,3.5-9.4h7.3l0.1,0.2
		c0.1,5.2-1.7,9.6-5.5,13.2c-3.8,3.5-8.8,5.3-15,5.3c-6.3,0-11.5-2.2-15.4-6.7c-4-4.5-6-10.2-6-17V63c0-6.9,2-12.6,6-17.1
		s9.1-6.7,15.4-6.7s11.3,1.7,15.1,5c3.7,3.4,5.5,7.8,5.4,13.4l-0.1,0.2h-7.3c0-3.9-1.2-7-3.5-9.3s-5.5-3.4-9.7-3.4
		s-7.6,1.7-10.1,5.1c-2.5,3.4-3.8,7.6-3.8,12.7v10C381.1,78,382.3,82.3,384.8,85.7z M459,95.9l-4.9-14.4h-21l-5,14.4h-7.7L440.5,40
		h6.5l19.7,55.8L459,95.9L459,95.9z M506.9,92.6c-3.5,2.7-8.2,4.1-13.9,4.1c-5.4,0-10.2-1.5-14.3-4.5c-4.1-3-6.1-7.1-6-12.1l0.1-0.2
		h7.2c0,3.5,1.3,6.2,4,8.1s5.7,2.9,9,2.9c3.6,0,6.4-0.8,8.5-2.4s3.1-3.8,3.1-6.6c0-2.5-0.9-4.7-2.7-6.4c-1.8-1.7-5-3.2-9.6-4.4
		c-5.7-1.4-10.1-3.5-13.3-6.2c-3.2-2.7-4.8-6.2-4.8-10.3c0-4.4,1.7-8,5.1-10.9c3.4-2.9,7.9-4.4,13.3-4.4c5.9,0,10.6,1.7,14.1,5
		s5.2,7.2,5.1,11.7l-0.1,0.2h-7.2c0-3.2-1.1-5.8-3.3-7.9c-2.2-2.1-5-3.1-8.5-3.1s-6.2,0.9-8.1,2.6c-1.9,1.7-2.8,3.9-2.8,6.7
		c0,2.4,1,4.5,3.1,6.1s5.4,3,10,4.3c5.6,1.5,9.9,3.6,12.8,6.4s4.4,6.3,4.4,10.5C512.2,86.2,510.5,89.8,506.9,92.6z M531.3,95.9h-7.6
		V40h7.6V95.9z M587.4,95.9h-7.6l-26.9-42.7l-0.2,0.1v42.6h-7.6V40h7.6l26.9,42.6l0.2-0.1V40h7.6V95.9z M643.1,72.9
		c0,6.8-2.1,12.5-6.3,17s-9.7,6.8-16.5,6.8c-6.5,0-11.8-2.3-15.9-6.8c-4.1-4.5-6.1-10.2-6.1-17V63c0-6.8,2-12.5,6.1-17
		s9.4-6.8,15.9-6.8c6.8,0,12.2,2.3,16.5,6.8s6.3,10.2,6.3,17V72.9z"/>
	<path class="st1" d="M620.3,45.4c-4.4,0-7.9,1.6-10.5,4.9c-2.6,3.3-3.9,7.5-3.9,12.6v10c0,5.2,1.3,9.4,3.9,12.7
		c2.6,3.3,6.1,4.9,10.5,4.9c4.7,0,8.4-1.6,11.1-4.9c2.7-3.3,4.1-7.5,4.1-12.7v-10c0-5.1-1.4-9.3-4.1-12.6
		C628.7,47.1,624.9,45.4,620.3,45.4z"/>
</g>
</svg>
